<?xml version="1.0" encoding="UTF-8"?>
<svg width="110px" height="24px" viewBox="0 0 110 24" version="1.1" xmlns="http://www.w3.org/2000/svg" xmlns:xlink="http://www.w3.org/1999/xlink">
    <title>TheBambooTeam</title>
    <g id="Landing-Page" stroke="none" stroke-width="1" fill="none" fill-rule="evenodd">
        <path d="M9.016,23.584 C9.08,23.552 9.208,23.52 9.272,23.552 C9.336,23.552 9.4,23.456 9.56,22.976 C9.784,22.24 10.072,20.832 10.2,19.84 C10.328,18.912 10.36,17.248 10.232,16.512 C10.168,16 10.168,15.936 10.328,15.136 C10.808,12.896 11.448,10.432 12.152,8.256 C12.696,6.656 13.528,4.256 13.592,4.16 C13.688,4.096 16.92,3.168 18.776,2.72 C21.88,1.92 23.48,1.664 25.272,1.664 C26.296,1.664 26.584,1.696 26.872,1.792 C27.64,2.016 27.768,2.432 27.352,3.296 C27.096,3.808 27.064,3.968 27.256,4.032 C27.416,4.064 27.512,3.904 27.8,3.328 C28.184,2.528 28.184,2.016 27.704,1.568 C26.968,0.832 25.048,0.768 21.912,1.28 C20.152,1.568 18.072,2.112 15.032,3.04 C14.456,3.232 13.944,3.36 13.912,3.36 C13.88,3.36 13.944,3.136 14.04,2.816 C14.6243478,1.26747826 14.7818677,0.759349716 14.6343447,0.536546396 L14.616,0.514 C14.5134694,0.441469388 14.3097143,0.429714286 14.2,0.512 C14.168,0.544 13.976,0.928 13.816,1.408 C13.208,3.168 12.92,3.808 12.76,3.904 C12.408,4 8.536,5.184 7.256,5.536 C4.12,6.432 2.424,6.848 1.624,6.88 C0.952,6.88 0.856,6.912 0.856,7.104 C0.856,7.296 1.016,7.328 1.816,7.424 C4.568,7.648 6.104,8.576 7.64,10.88 C8.472,12.128 9.528,14.368 9.528,14.88 C9.528,15.008 9.464,15.36 9.4,15.712 C9.016,17.632 8.632,20.384 8.568,21.856 C8.536,22.976 8.568,23.264 8.76,23.488 C8.888,23.616 8.952,23.616 9.016,23.584 Z M9.464,13.568 C9.208,12.768 8.44,11.296 8.024,10.624 C6.744,8.672 5.304,7.616 3.288,7.072 L2.744,6.944 L3.704,6.72 C5.176,6.368 9.304,5.312 11,4.864 C11.864,4.608 12.568,4.416 12.568,4.448 C12.6,4.48 12.44,4.928 12.248,5.472 L12.184,5.44 C11.352,7.68 10.552,10.336 10.008,12.576 C9.88,13.28 9.72,13.888 9.72,13.952 C9.656,14.016 9.592,13.92 9.464,13.568 Z M9.144,23.04 C9.016,22.88 9.208,21.184 9.56,18.88 C9.912,17.024 9.944,16.96 9.912,18.304 C9.88,19.616 9.784,20.288 9.464,21.856 C9.208,23.168 9.208,23.104 9.144,23.04 Z M11.928,20.448 C12.056,20.416 12.056,20.416 12.152,20.128 C12.2996923,19.7144615 12.4473846,19.491787 12.8971033,18.8055858 L13.016,18.624 C13.496,17.888 13.752,17.504 14.264,16.864 C14.936,16.064 16.12,14.752 16.12,14.848 C16.12,14.88 16.056,15.168 15.992,15.488 C15.832,16.192 15.768,16.832 15.896,16.992 C15.96,17.184 16.088,17.248 16.344,17.216 C16.728,17.184 17.336,16.672 18.392,15.648 C18.584,15.488 19.032,15.04 19.224,14.848 C19.256,14.816 19.256,14.752 19.256,14.688 C19.224,14.592 19.064,14.528 18.968,14.624 C18.776,14.816 18.52,15.104 18.424,15.2 C17.368,16.16 16.568,16.768 16.344,16.768 C16.216,16.768 16.248,16.672 16.504,15.776 C16.792,14.592 16.824,14.24 16.6,14.016 C16.344,13.76 16.088,13.856 15.576,14.368 C15,14.912 13.368,16.96 12.76,17.856 C12.696,17.984 12.6,18.112 12.6,18.112 C12.568,18.08 13.624,15.296 14.104,14.144 C14.424,13.376 14.424,13.376 14.808,12.96 L14.84,12.96 C15.512,12.256 16.888,10.4 18.328,8.224 C19.096,7.04 19.672,6.144 20.024,5.408 C20.44,4.576 20.472,4.288 20.184,4.096 C20.088,4 20.056,4 19.896,4.064 C19.544,4.192 18.552,5.248 17.528,6.688 C16.216,8.448 15.16,10.272 14.168,12.352 C13.912,12.896 13.592,13.632 13.496,13.856 C12.536,16.096 11.576,19.136 11.544,20.032 C11.544,20.288 11.576,20.32 11.64,20.416 C11.704,20.448 11.8,20.48 11.928,20.448 Z M15.288,11.456 L15.352,11.456 C16.568,8.992 18.328,6.24 19.48,5.056 L19.768,4.736 L19.704,4.96 C19.576,5.248 19.096,6.24 18.744,6.816 C17.752,8.544 16.632,10.272 15.416,11.744 C15.192,12.064 14.968,12.32 14.936,12.352 C14.808,12.512 14.904,12.288 15.288,11.456 Z M20.76,17.216 C21.272,16.832 22.84,15.296 23.352,14.656 C23.384,14.624 23.448,14.592 23.448,14.56 C23.48,14.528 23.48,14.464 23.448,14.432 C23.384,14.368 23.32,14.368 23.256,14.432 C23.128,14.56 23,14.656 22.84,14.816 C20.888,16.832 19.672,17.664 18.872,17.664 C18.584,17.664 18.456,17.6 18.392,17.376 C18.328,17.216 18.424,16.8 18.552,16.416 C18.648,16.192 18.648,16.192 18.872,16.16 C19.096,16.096 19.288,16 19.576,15.744 C20.088,15.328 20.76,14.4 21.048,13.792 C21.304,13.248 21.208,12.8 20.792,12.736 C20.056,12.64 18.52,14.464 17.976,16.16 C17.8693333,16.4266667 17.8515556,16.5822222 17.8485926,16.8118519 L17.848,16.96 C17.848,17.28 17.848,17.376 17.944,17.568 C18.104,17.888 18.328,18.048 18.712,18.08 C19.256,18.112 19.928,17.824 20.76,17.216 Z M18.904,15.776 C18.872,15.776 19.16,15.2 19.48,14.752 L19.448,14.752 C19.896,14.08 20.664,13.312 20.664,13.472 C20.76,13.76 19.768,15.104 19.096,15.648 C19.032,15.712 18.936,15.776 18.904,15.776 Z M31.096,23.2 C32.856,22.848 34.872,21.888 36.632,20.64 C39.608,18.496 41.4,15.872 41.304,13.76 L41.304,13.248 L42.136,12.96 L42.5304033,12.8431495 C43.5775802,12.5341235 44.5573333,12.256 44.728,12.256 C44.824,12.256 44.824,12.224 44.824,12.128 C44.824,12.032 44.824,12.032 44.632,12 C44.376,11.968 43.288,12.256 42.2,12.64 C41.72,12.8 41.304,12.928 41.24,12.928 C41.208,12.96 41.144,12.896 41.016,12.672 C40.92,12.48 40.76,12.224 40.568,12.032 C39.896,11.392 38.744,11.072 37.464,11.2 C36.888,11.232 36.216,11.36 35.832,11.52 L35.576,11.584 L35.992,11.2 C36.728,10.56 38.488,8.736 39.128,8 C41.464,5.344 42.904,2.816 42.648,1.856 C42.584,1.6 42.36,1.376 42.136,1.28 C41.528,1.216 40.664,1.6 39.512,2.496 C39,2.912 37.432,4.512 36.824,5.216 C36.184,5.952 35.416,6.976 34.872,7.776 C34.648,8.096 34.424,8.384 34.424,8.384 C34.424,8.352 34.68,7.648 35,6.752 C36.12,3.488 36.408,2.592 36.568,1.952 C36.824,1.024 36.824,1.056 36.664,0.928 C36.504,0.768 36.376,0.768 36.28,0.832 C36.12,0.928 36.088,1.12 36.12,1.28 C36.184,1.728 35.928,2.624 34.712,6.144 C34.328,7.328 33.848,8.736 33.624,9.28 C33.336,10.144 33.24,10.432 32.824,11.136 C32.056,12.64 31.224,14.432 30.712,15.904 C30.488,16.544 30.072,17.824 30.04,18.048 C30.008,18.176 29.848,18.304 29.496,18.688 C27.96,20.032 27.32,21.216 27.64,22.176 L27.608,22.208 C27.8,22.72 28.312,23.104 28.984,23.264 C29.4,23.36 30.488,23.328 31.096,23.2 Z M32.984,12.832 L32.952,12.8 C32.984,12.8 33.176,12.128 33.432,11.392 C33.784,10.336 33.976,9.92 34.136,9.664 C34.52,8.992 35.416,7.648 35.96,6.944 C38.168,3.968 40.728,1.696 41.912,1.6 C42.168,1.6 42.2,1.6 42.296,1.728 C42.424,1.824 42.424,1.856 42.392,2.112 C42.328,2.816 41.592,4.128 40.344,5.76 C38.552,8.16 35.992,10.688 33.624,12.416 C33.016,12.864 32.92,12.928 32.984,12.832 Z M31.384,17.152 C31.544,16.736 32.216,15.008 32.408,14.432 C32.792,13.344 32.728,13.44 32.856,13.472 L32.856,13.536 C33.016,13.6 33.272,13.472 33.88,13.024 C34.36,12.64 34.744,12.416 35.416,12.192 C36.44,11.776 37.272,11.616 38.232,11.616 C38.776,11.616 39,11.648 39.288,11.712 C40.024,11.904 40.536,12.288 40.792,12.8 C40.856,12.928 40.92,13.056 40.92,13.056 C40.92,13.056 40.408,13.248 39.8,13.44 C38.328,13.952 36.888,14.496 35.832,14.944 C34.744,15.392 32.92,16.288 32.184,16.736 C31.896,16.928 31.576,17.12 31.512,17.152 C31.384,17.248 31.384,17.248 31.384,17.152 Z M30.392,17.856 C30.392,17.728 30.936,16.16 31.224,15.392 L31.288,15.36 C31.704,14.272 32.408,12.672 32.44,12.704 C32.504,12.736 31.448,15.616 30.904,17.056 C30.712,17.504 30.584,17.728 30.52,17.792 C30.456,17.856 30.392,17.856 30.392,17.856 Z M28.088,21.952 C28.024,21.824 27.992,21.728 28.024,21.44 C28.056,20.832 28.504,20.064 29.304,19.232 C29.656,18.88 29.72,18.848 29.688,18.976 L29.72,19.008 C29.592,19.744 29.592,20.032 29.848,20.032 C30.072,20.032 30.36,19.52 30.84,18.304 L31.064,17.792 L31.576,17.472 C33.336,16.352 35.64,15.232 38.456,14.176 C39.064,13.92 40.856,13.312 40.888,13.312 C40.92,13.312 40.92,13.568 40.888,13.856 C40.856,14.336 40.856,14.496 40.696,14.912 C40.504,15.52 40.344,15.904 39.96,16.48 C38.168,19.2 34.072,21.888 30.936,22.432 C29.496,22.656 28.408,22.464 28.088,21.952 Z M43.608,18.016 C43.928,17.888 44.568,17.12 46.328,14.912 C46.904,14.208 47.416,13.632 47.448,13.696 C47.448,13.696 47.384,13.92 47.288,14.144 C46.872,15.52 46.776,15.936 46.808,16.448 C46.808,16.704 46.84,16.992 47,17.184 C47.192,17.344 47.448,17.376 47.672,17.344 C47.96,17.344 48.184,17.184 48.44,17.056 C49.016,16.672 49.592,16.288 50.104,15.84 C50.232,15.712 50.392,15.584 50.52,15.488 C50.584,15.392 50.648,15.296 50.68,15.2 C50.68,15.104 50.616,15.04 50.52,15.04 L50.456,15.04 C50.392,15.04 50.328,15.072 50.296,15.104 C49.976,15.392 49.688,15.648 49.336,15.936 C48.344,16.672 47.736,16.992 47.416,16.896 C47.096,16.832 47.128,16.16 47.576,14.432 C47.704,13.952 47.832,13.472 47.832,13.408 C47.832,13.024 47.608,12.96 47.256,13.216 C47.16,13.312 47.032,13.376 47,13.376 L47,13.28 L47,13.28 C47,13.152 46.84,12.864 46.712,12.736 C46.392,12.48 45.944,12.416 45.592,12.512 C44.92,12.768 44.248,13.44 43.64,14.528 C42.904,15.872 42.52,17.216 42.808,17.728 C42.968,18.08 43.256,18.176 43.608,18.016 Z M43.448,17.28 C43.48,17.216 43.544,16.96 43.608,16.736 C44.152,15.2 44.984,13.856 45.656,13.536 C45.944,13.408 46.168,13.408 46.488,13.6 C46.584,13.696 46.712,13.76 46.712,13.76 C46.744,13.76 46.616,13.92 46.488,14.08 C46.296,14.24 45.72,14.944 45.144,15.648 C44.568,16.32 43.96,16.992 43.832,17.088 C43.704,17.216 43.544,17.344 43.512,17.344 C43.416,17.408 43.416,17.408 43.448,17.28 Z M50.584,17.12 C50.68,17.12 51,16.896 51.256,16.608 C51.608,16.16 53.464,14.368 53.752,14.144 C53.912,14.048 54.04,13.952 54.04,13.952 C54.072,13.984 54.008,14.208 53.912,14.464 C53.816,14.816 53.752,15.04 53.752,15.264 C53.752,15.52 53.752,15.552 53.88,15.648 C54.04,15.744 54.2,15.712 54.872,15.2 C56.088,14.304 56.44,14.08 56.536,14.144 C56.6,14.176 56.6,14.4 56.568,14.88 C56.536,15.488 56.536,15.648 56.6,15.872 C56.728,16.32 57.048,16.544 57.4,16.448 C57.656,16.416 58.232,16.096 58.68,15.776 C58.936,15.584 59.224,15.328 59.736,14.912 C59.8,14.848 59.736,14.72 59.64,14.72 L59.608,14.624 C59.576,14.624 59.576,14.656 59.576,14.656 C58.168,15.84 57.496,16.224 57.144,16.064 C56.952,15.968 56.888,15.808 56.952,14.88 C56.952,14.208 56.952,14.08 56.888,13.952 C56.824,13.76 56.664,13.696 56.472,13.696 C56.056,13.696 55.544,13.984 54.392,14.88 C54.328,14.912 54.328,14.912 54.36,14.848 C54.488,14.592 54.648,14.048 54.648,13.792 C54.648,13.248 54.36,13.152 53.816,13.472 C53.304,13.76 52.472,14.496 51.8,15.264 L51.64025,15.42375 C51.5665,15.4975 51.524,15.54 51.544,15.52 C51.576,15.488 51.704,15.2 51.896,14.848 C52.728,13.088 52.76,13.024 52.6,12.768 C52.536,12.64 52.408,12.544 52.248,12.544 C52.056,12.544 51.896,12.768 51.736,13.184 C51.64,13.408 51.448,13.92 51.256,14.304 C51,14.912 50.68,15.552 50.68,15.552 C50.712,15.552 50.68,15.648 50.616,15.712 C50.456,16.032 50.328,16.544 50.328,16.736 C50.328,16.992 50.424,17.12 50.584,17.12 Z M59.896,15.84 L60.312,14.656 C61.272,13.6 62.936,11.264 64.792,8.48 C66.36,6.144 67,5.024 67.032,4.544 C67.032,4.288 67.032,4.288 66.936,4.192 C66.712,3.968 66.424,4.064 65.848,4.544 C65.048,5.216 63.928,6.56 62.904,8.096 C61.592,10.048 60.44,12.288 59.48,14.752 C59.32,15.232 59.096,15.84 58.968,16.288 C58.296,18.176 57.784,20.416 57.848,21.248 C57.848,21.568 57.88,21.6 58.008,21.76 C58.104,21.824 58.168,21.888 58.2,21.888 C58.296,21.888 58.36,21.76 58.36,21.568 C58.36,21.312 58.52,20.576 58.68,20.096 C59.384,17.984 60.92,15.392 61.912,14.752 C62.296,14.496 62.52,14.528 62.68,14.848 C62.776,14.976 62.808,15.136 62.808,15.36 L62.84,15.68 L62.552,15.872 C62.2,16.128 61.432,16.896 61.016,17.344 C60.12,18.432 59.704,19.392 59.928,19.84 C60.312,20.576 61.272,20 62.264,18.528 C62.904,17.568 63.224,16.832 63.352,16.096 L63.448,15.84 L63.8,15.616 C64.088,15.424 64.856,15.008 65.08,14.88 C65.176,14.688 64.984,14.496 64.792,14.592 C64.408,14.752 63.928,15.008 63.704,15.104 C63.576,15.2 63.48,15.264 63.48,15.264 C63.48,15.264 63.448,15.104 63.416,14.944 C63.256,14.304 62.904,13.952 62.424,13.952 C61.656,13.952 60.664,15.008 59.64,16.96 C59.5333333,17.152 59.4408889,17.3013333 59.4005926,17.3795556 L59.384,17.44 C59.448,17.184 59.672,16.48 59.896,15.84 Z M60.664,13.824 C60.632,13.824 61.24,12.512 61.816,11.36 L61.816,11.392 C63.064,8.96 64.472,6.912 65.944,5.408 C66.2,5.12 66.424,4.896 66.456,4.896 C66.488,4.928 66.136,5.632 65.688,6.464 C64.056,9.28 62.776,11.2 61.176,13.248 C60.92,13.568 60.696,13.824 60.664,13.824 Z M60.44,19.52 C60.376,19.52 60.44,19.232 60.568,18.944 C60.76,18.56 61.24,17.888 61.656,17.44 C62.008,16.992 62.68,16.384 62.712,16.448 C62.712,16.512 62.456,17.088 62.264,17.44 L62.296,17.408 C61.912,18.048 61.304,18.784 60.76,19.232 L60.6321866,19.3590671 C60.5346939,19.4546939 60.4628571,19.52 60.44,19.52 Z M64.504,16.832 C65.016,16.64 65.912,15.712 66.296,14.944 C66.424,14.688 66.36,14.72 67.192,14.656 C68.024,14.592 67.416,14.592 68.088,14.464 C68.28,14.4 68.504,14.368 68.664,14.304 C68.76,14.304 68.792,14.208 68.76,14.112 L68.856,14.08 C68.824,14.016 68.76,13.984 68.664,14.016 C67.768,14.208 67.576,14.24 67.16,14.304 C66.616,14.368 67.032,14.336 66.744,14.336 L66.584,14.336 L66.584,13.984 C66.584,13.6 66.52,13.472 66.232,13.312 C65.944,13.152 65.24,13.312 64.792,13.632 C64.728,13.696 64.664,13.728 64.6,13.728 C64.44,13.728 64.216,13.92 64.056,14.208 C63.928,14.464 63.8,15.04 63.768,15.104 C63.704,15.296 63.672,16 63.672,16.192 C63.768,16.736 64.056,16.992 64.504,16.832 Z M66.008,14.4 L65.3237037,14.3995556 C64.9866667,14.3973333 64.92,14.384 64.92,14.304 C64.92,14.208 64.952,14.176 65.208,14.016 C65.464,13.856 65.784,13.696 65.944,13.696 C66.136,13.696 66.2,13.856 66.104,14.144 L66.072,14.176 L66.008,14.4 Z M64.248,16.288 C64.216,16.192 64.344,15.488 64.504,15.104 L64.664,14.752 L65.24,14.752 C65.528,14.752 65.784,14.784 65.816,14.784 C65.848,14.784 65.752,14.944 65.592,15.136 L65.592,15.168 C65.336,15.52 64.952,15.936 64.696,16.16 C64.504,16.32 64.28,16.384 64.248,16.288 Z M68.792,16.832 C69.304,16.64 70.2,15.712 70.584,14.944 C70.712,14.688 70.648,14.72 71.48,14.656 C72.312,14.592 71.704,14.592 72.376,14.464 C72.568,14.4 72.792,14.368 72.952,14.304 C73.048,14.304 73.08,14.208 73.048,14.112 L73.144,14.08 C73.112,14.016 73.048,13.984 72.952,14.016 C72.056,14.208 71.864,14.24 71.448,14.304 C70.904,14.368 71.32,14.336 71.032,14.336 L70.872,14.336 L70.872,13.984 C70.872,13.6 70.808,13.472 70.52,13.312 C70.232,13.152 69.528,13.312 69.08,13.632 C69.016,13.696 68.952,13.728 68.888,13.728 C68.728,13.728 68.504,13.92 68.344,14.208 C68.216,14.464 68.088,15.04 68.056,15.104 C67.992,15.296 67.96,16 67.96,16.192 C68.056,16.736 68.344,16.992 68.792,16.832 Z M70.296,14.4 L69.6117037,14.3995556 C69.2746667,14.3973333 69.208,14.384 69.208,14.304 C69.208,14.208 69.24,14.176 69.496,14.016 C69.752,13.856 70.072,13.696 70.232,13.696 C70.424,13.696 70.488,13.856 70.392,14.144 L70.36,14.176 L70.296,14.4 Z M68.536,16.288 C68.504,16.192 68.632,15.488 68.792,15.104 L68.952,14.752 L69.528,14.752 C69.816,14.752 70.072,14.784 70.104,14.784 C70.136,14.784 70.04,14.944 69.88,15.136 L69.88,15.168 C69.624,15.52 69.24,15.936 68.984,16.16 C68.792,16.32 68.568,16.384 68.536,16.288 Z M85.336,23.584 C85.4,23.552 85.528,23.52 85.592,23.552 C85.656,23.552 85.72,23.456 85.88,22.976 C86.104,22.24 86.392,20.832 86.52,19.84 C86.648,18.912 86.68,17.248 86.552,16.512 C86.488,16 86.488,15.936 86.648,15.136 C87.128,12.896 87.768,10.432 88.472,8.256 C89.016,6.656 89.848,4.256 89.912,4.16 C90.008,4.096 93.24,3.168 95.096,2.72 C98.2,1.92 99.8,1.664 101.592,1.664 C102.616,1.664 102.904,1.696 103.192,1.792 C103.96,2.016 104.088,2.432 103.672,3.296 C103.416,3.808 103.384,3.968 103.576,4.032 C103.736,4.064 103.832,3.904 104.12,3.328 C104.504,2.528 104.504,2.016 104.024,1.568 C103.288,0.832 101.368,0.768 98.232,1.28 C96.472,1.568 94.392,2.112 91.352,3.04 C90.776,3.232 90.264,3.36 90.232,3.36 C90.2,3.36 90.264,3.136 90.36,2.816 C90.9443478,1.26747826 91.1018677,0.759349716 90.9543447,0.536546396 L90.936,0.514 C90.8334694,0.441469388 90.6297143,0.429714286 90.52,0.512 C90.488,0.544 90.296,0.928 90.136,1.408 C89.528,3.168 89.24,3.808 89.08,3.904 C88.728,4 84.856,5.184 83.576,5.536 C80.44,6.432 78.744,6.848 77.944,6.88 C77.272,6.88 77.176,6.912 77.176,7.104 C77.176,7.296 77.336,7.328 78.136,7.424 C80.888,7.648 82.424,8.576 83.96,10.88 C84.792,12.128 85.848,14.368 85.848,14.88 C85.848,15.008 85.784,15.36 85.72,15.712 C85.336,17.632 84.952,20.384 84.888,21.856 C84.856,22.976 84.888,23.264 85.08,23.488 C85.208,23.616 85.272,23.616 85.336,23.584 Z M85.784,13.568 C85.528,12.768 84.76,11.296 84.344,10.624 C83.064,8.672 81.624,7.616 79.608,7.072 L79.064,6.944 L80.024,6.72 C81.496,6.368 85.624,5.312 87.32,4.864 C88.184,4.608 88.888,4.416 88.888,4.448 C88.92,4.48 88.76,4.928 88.568,5.472 L88.504,5.44 C87.672,7.68 86.872,10.336 86.328,12.576 C86.2,13.28 86.04,13.888 86.04,13.952 C85.976,14.016 85.912,13.92 85.784,13.568 Z M85.464,23.04 C85.336,22.88 85.528,21.184 85.88,18.88 C86.232,17.024 86.264,16.96 86.232,18.304 C86.2,19.616 86.104,20.288 85.784,21.856 C85.528,23.168 85.528,23.104 85.464,23.04 Z M91.288,17.216 C91.8,16.832 93.368,15.296 93.88,14.656 C93.912,14.624 93.976,14.592 93.976,14.56 C94.008,14.528 94.008,14.464 93.976,14.432 C93.912,14.368 93.848,14.368 93.784,14.432 C93.656,14.56 93.528,14.656 93.368,14.816 C91.416,16.832 90.2,17.664 89.4,17.664 C89.112,17.664 88.984,17.6 88.92,17.376 C88.856,17.216 88.952,16.8 89.08,16.416 C89.176,16.192 89.176,16.192 89.4,16.16 C89.624,16.096 89.816,16 90.104,15.744 C90.616,15.328 91.288,14.4 91.576,13.792 C91.832,13.248 91.736,12.8 91.32,12.736 C90.584,12.64 89.048,14.464 88.504,16.16 C88.3973333,16.4266667 88.3795556,16.5822222 88.3765926,16.8118519 L88.376,16.96 C88.376,17.28 88.376,17.376 88.472,17.568 C88.632,17.888 88.856,18.048 89.24,18.08 C89.784,18.112 90.456,17.824 91.288,17.216 Z M89.432,15.776 C89.4,15.776 89.688,15.2 90.008,14.752 L89.976,14.752 C90.424,14.08 91.192,13.312 91.192,13.472 C91.288,13.76 90.296,15.104 89.624,15.648 C89.56,15.712 89.464,15.776 89.432,15.776 Z M93.72,18.016 C94.04,17.888 94.68,17.12 96.44,14.912 C97.016,14.208 97.528,13.632 97.56,13.696 C97.56,13.696 97.496,13.92 97.4,14.144 C96.984,15.52 96.888,15.936 96.92,16.448 C96.92,16.704 96.952,16.992 97.112,17.184 C97.304,17.344 97.56,17.376 97.784,17.344 C98.072,17.344 98.296,17.184 98.552,17.056 C99.128,16.672 99.704,16.288 100.216,15.84 C100.344,15.712 100.504,15.584 100.632,15.488 C100.696,15.392 100.76,15.296 100.792,15.2 C100.792,15.104 100.728,15.04 100.632,15.04 L100.568,15.04 C100.504,15.04 100.44,15.072 100.408,15.104 C100.088,15.392 99.8,15.648 99.448,15.936 C98.456,16.672 97.848,16.992 97.528,16.896 C97.208,16.832 97.24,16.16 97.688,14.432 C97.816,13.952 97.944,13.472 97.944,13.408 C97.944,13.024 97.72,12.96 97.368,13.216 C97.272,13.312 97.144,13.376 97.112,13.376 L97.112,13.28 L97.112,13.28 C97.112,13.152 96.952,12.864 96.824,12.736 C96.504,12.48 96.056,12.416 95.704,12.512 C95.032,12.768 94.36,13.44 93.752,14.528 C93.016,15.872 92.632,17.216 92.92,17.728 C93.08,18.08 93.368,18.176 93.72,18.016 Z M93.56,17.28 C93.592,17.216 93.656,16.96 93.72,16.736 C94.264,15.2 95.096,13.856 95.768,13.536 C96.056,13.408 96.28,13.408 96.6,13.6 C96.696,13.696 96.824,13.76 96.824,13.76 C96.856,13.76 96.728,13.92 96.6,14.08 C96.408,14.24 95.832,14.944 95.256,15.648 C94.68,16.32 94.072,16.992 93.944,17.088 C93.816,17.216 93.656,17.344 93.624,17.344 C93.528,17.408 93.528,17.408 93.56,17.28 Z M100.696,17.12 C100.792,17.12 101.112,16.896 101.368,16.608 C101.72,16.16 103.576,14.368 103.864,14.144 C104.024,14.048 104.152,13.952 104.152,13.952 C104.184,13.984 104.12,14.208 104.024,14.464 C103.928,14.816 103.864,15.04 103.864,15.264 C103.864,15.52 103.864,15.552 103.992,15.648 C104.152,15.744 104.312,15.712 104.984,15.2 C106.2,14.304 106.552,14.08 106.648,14.144 C106.712,14.176 106.712,14.4 106.68,14.88 C106.648,15.488 106.648,15.648 106.712,15.872 C106.84,16.32 107.16,16.544 107.512,16.448 C107.768,16.416 108.344,16.096 108.792,15.776 C109.048,15.584 109.336,15.328 109.848,14.912 C109.912,14.848 109.848,14.72 109.752,14.72 L109.72,14.624 C109.688,14.624 109.688,14.656 109.688,14.656 C108.28,15.84 107.608,16.224 107.256,16.064 C107.064,15.968 107,15.808 107.064,14.88 C107.064,14.208 107.064,14.08 107,13.952 C106.936,13.76 106.776,13.696 106.584,13.696 C106.168,13.696 105.656,13.984 104.504,14.88 C104.44,14.912 104.44,14.912 104.472,14.848 C104.6,14.592 104.76,14.048 104.76,13.792 C104.76,13.248 104.472,13.152 103.928,13.472 C103.416,13.76 102.584,14.496 101.912,15.264 L101.75225,15.42375 C101.6785,15.4975 101.636,15.54 101.656,15.52 C101.688,15.488 101.816,15.2 102.008,14.848 C102.84,13.088 102.872,13.024 102.712,12.768 C102.648,12.64 102.52,12.544 102.36,12.544 C102.168,12.544 102.008,12.768 101.848,13.184 C101.752,13.408 101.56,13.92 101.368,14.304 C101.112,14.912 100.792,15.552 100.792,15.552 C100.824,15.552 100.792,15.648 100.728,15.712 C100.568,16.032 100.44,16.544 100.44,16.736 C100.44,16.992 100.536,17.12 100.696,17.12 Z" id="TheBambooTeam" stroke="#000000" stroke-width="0.25" fill="#000000" fill-rule="nonzero"></path>
    </g>
</svg>